<svg xmlns="http://www.w3.org/2000/svg" xmlns:xlink="http://www.w3.org/1999/xlink" width="1025" height="920"><defs><linearGradient x1="721.55" y1="535.76" x2="721.55" y2="325.76" id="h" gradientUnits="userSpaceOnUse"><stop stop-color="gray" stop-opacity=".25" offset="0%"/><stop stop-color="gray" stop-opacity=".12" offset="54%"/><stop stop-color="gray" stop-opacity=".1" offset="100%"/></linearGradient><linearGradient x1="79820%" y1="58315%" x2="79820%" y2="45815%" id="a"><stop stop-color="gray" stop-opacity=".25" offset="0%"/><stop stop-color="gray" stop-opacity=".12" offset="54%"/><stop stop-color="gray" stop-opacity=".1" offset="100%"/></linearGradient><linearGradient x1="61200.868" y1="109956.31" x2="61200.868" y2="30740.469" id="j" gradientTransform="scale(.83116 1.20314)" gradientUnits="userSpaceOnUse"><stop stop-color="gray" stop-opacity=".25" offset="0%"/><stop stop-color="gray" stop-opacity=".12" offset="54%"/><stop stop-color="gray" stop-opacity=".1" offset="100%"/></linearGradient><linearGradient x1="118095.43" y1="109915.82" x2="118095.43" y2="30699.981" id="k" gradientTransform="scale(.83116 1.20314)" gradientUnits="userSpaceOnUse"><stop stop-color="gray" stop-opacity=".25" offset="0%"/><stop stop-color="gray" stop-opacity=".12" offset="54%"/><stop stop-color="gray" stop-opacity=".1" offset="100%"/></linearGradient><linearGradient x1="133326.31" y1="131784.44" x2="133326.31" y2="52568.598" id="l" gradientTransform="scale(.83116 1.20314)" gradientUnits="userSpaceOnUse"><stop stop-color="gray" stop-opacity=".25" offset="0%"/><stop stop-color="gray" stop-opacity=".12" offset="54%"/><stop stop-color="gray" stop-opacity=".1" offset="100%"/></linearGradient><linearGradient x1="23272%" y1="41394%" x2="25072%" y2="41394%" id="b"><stop stop-color="gray" stop-opacity=".25" offset="0%"/><stop stop-color="gray" stop-opacity=".12" offset="54%"/><stop stop-color="gray" stop-opacity=".1" offset="100%"/></linearGradient><linearGradient x1="8687.367%" y1="38593%" x2="9923.084%" y2="7693%" id="c"><stop stop-color="gray" stop-opacity=".25" offset="0%"/><stop stop-color="gray" stop-opacity=".12" offset="54%"/><stop stop-color="gray" stop-opacity=".1" offset="100%"/></linearGradient><linearGradient x1="48950%" y1="75783%" x2="48950%" y2="55387%" id="d"><stop stop-color="gray" stop-opacity=".25" offset="0%"/><stop stop-color="gray" stop-opacity=".12" offset="54%"/><stop stop-color="gray" stop-opacity=".1" offset="100%"/></linearGradient><linearGradient x1="45884%" y1="82189%" x2="45884%" y2="61869%" id="e"><stop stop-color="gray" stop-opacity=".25" offset="0%"/><stop stop-color="gray" stop-opacity=".12" offset="54%"/><stop stop-color="gray" stop-opacity=".1" offset="100%"/></linearGradient><linearGradient x1="41951%" y1="80841%" x2="41951%" y2="60521%" id="f"><stop stop-color="gray" stop-opacity=".25" offset="0%"/><stop stop-color="gray" stop-opacity=".12" offset="54%"/><stop stop-color="gray" stop-opacity=".1" offset="100%"/></linearGradient><linearGradient x1="31506%" y1="71886%" x2="31506%" y2="51566%" id="g"><stop stop-color="gray" stop-opacity=".25" offset="0%"/><stop stop-color="gray" stop-opacity=".12" offset="54%"/><stop stop-color="gray" stop-opacity=".1" offset="100%"/></linearGradient><linearGradient xlink:href="#a" id="i" x1="107938.49" y1="78857.856" x2="107938.49" y2="61954.489" gradientTransform="scale(1.0818 .92439)" gradientUnits="userSpaceOnUse"/><linearGradient xlink:href="#b" id="m" x1="6704.902" y1="11912.144" x2="7222.852" y2="11912.144" gradientTransform="scale(.62554 1.59861)" gradientUnits="userSpaceOnUse"/><linearGradient xlink:href="#c" id="n" x1="19291.65" y1="85904.336" x2="22038.622" y2="17214.306" gradientTransform="scale(1.3431 .74454)" gradientUnits="userSpaceOnUse"/><linearGradient xlink:href="#d" id="o" x1="55196.678" y1="85591.503" x2="55196.678" y2="62589.237" gradientTransform="scale(1.8085 .55294)" gradientUnits="userSpaceOnUse"/><linearGradient xlink:href="#e" id="p" x1="51629.517" y1="92654.107" x2="51629.517" y2="69780.29" gradientTransform="scale(1.80513 .55398)" gradientUnits="userSpaceOnUse"/><linearGradient xlink:href="#f" id="q" x1="47191.595" y1="91134.745" x2="47191.595" y2="68260.935" gradientTransform="scale(1.80513 .55398)" gradientUnits="userSpaceOnUse"/><linearGradient xlink:href="#g" id="r" x1="35467.259" y1="80920.988" x2="35467.259" y2="58047.171" gradientTransform="scale(.55398 1.80513)" gradientUnits="userSpaceOnUse"/></defs><g fill="none" fill-rule="evenodd"><g transform="translate(-1 199)" fill-rule="nonzero"><circle fill="url(#h)" cx="721.55" cy="430.76" r="105"/><circle fill="#f5f5f5" cx="721.55" cy="430.76" r="100"/><path d="M86.35.3C53.596-.835 25.528 23.523 22.04 56.11h-18A3.64 3.64 0 00.4 59.75v6a3.64 3.64 0 003.64 3.64h18c3.54 33.19 32.532 57.74 65.851 55.763 33.319-1.978 59.204-29.787 58.792-63.162C146.27 28.616 119.707 1.455 86.35.3z" fill="url(#i)" opacity=".5" transform="translate(638 368)"/><path d="M723.54 372.04c-30.776-1.045-57.136 21.851-60.41 52.47h-17.42a2.92 2.92 0 00-2.92 2.92v6.68a2.92 2.92 0 002.92 2.92h17.42c3.356 31.192 30.627 54.245 61.942 52.36 31.316-1.885 55.626-28.041 55.216-59.411-.41-31.37-25.394-56.883-56.748-57.949z" fill="#fff"/><circle fill="#a1887f" cx="721.55" cy="430.76" r="41.25"/><path d="M742.8 410.76s11.77 18.28 8.41 32.5c-.01 0 13.44-22.34-8.41-32.5z" fill="#fff" opacity=".2"/><circle fill="#fff" opacity=".2" cx="747.8" cy="453.26" r="3.75"/><path fill="url(#j)" transform="rotate(-12.75 139.061 222.823)" d="M32.426 68.463h213.27v308.72H32.426z"/><path fill="url(#k)" transform="rotate(-12.75 354.36 174.11)" d="M247.725 19.75h213.27v308.72h-213.27z"/><path fill="#fff" d="M5.185 99.627l203.81-45.754 66.443 295.97-203.81 45.754z"/><path fill="#f5f5f5" d="M218.64 50.382L421.484 4.483l66.652 294.563-202.842 45.899z"/><path fill="#e0e0e0" d="M210.548 92.724l21.818-4.937.658 2.907-21.818 4.937zm2.31 10.18l21.818-4.937.658 2.907-21.818 4.937zm2.302 10.191l21.818-4.937.658 2.907-21.818 4.937zm2.3 10.181l21.818-4.937.658 2.907-21.818 4.937zm2.31 10.179l21.818-4.937.658 2.907-21.818 4.937zm2.3 10.182l21.818-4.937.658 2.907-21.818 4.937zm2.309 10.179l21.818-4.937.658 2.907-21.818 4.937zm2.302 10.191l21.818-4.937.658 2.907-21.818 4.937zm2.309 10.179l21.82-4.937.657 2.907-21.818 4.937zm2.3 10.181l21.82-4.937.657 2.907-21.818 4.937zm2.311 10.18l21.818-4.937.658 2.907-21.818 4.937zm2.302 10.191l21.818-4.937.658 2.907-21.818 4.937zm2.3 10.182l21.818-4.938.658 2.907-21.818 4.937zm2.3 10.178l21.818-4.937.658 2.907-21.818 4.937zm2.3 10.182l21.818-4.937.658 2.907-21.818 4.937zm2.312 10.19l21.818-4.938.658 2.907-21.818 4.937zm2.3 10.18l21.818-4.937.658 2.907-21.818 4.937zm2.31 10.18l21.818-4.938.658 2.907-21.818 4.937zm2.3 10.181l21.818-4.937.658 2.907-21.818 4.937zm2.311 10.189l21.818-4.937.658 2.907-21.818 4.937zm2.3 10.181l21.818-4.937.658 2.907-21.818 4.937zm2.3 10.181l21.818-4.937.658 2.907-21.818 4.937zm2.31 10.179l21.818-4.937.658 2.907-21.818 4.937zm2.3 10.182l21.818-4.937.658 2.907-21.818 4.937z"/><path fill="#294ace" opacity=".3" d="M48.136 122.474l121.8-27.56 4.594 20.296-121.801 27.56zm-9.198 53.648l162.394-36.746 1.148 5.072-162.395 36.746zm2.677 11.848l162.394-36.747 1.148 5.072L42.763 193.04zm2.689 11.845l162.394-36.746 1.148 5.072-162.395 36.746zm2.673 11.845l77.813-17.608 1.147 5.072-77.813 17.607zm2.684 11.832l89.654-20.286 1.147 5.072-89.653 20.286zm2.674 11.843l162.394-36.746 1.148 5.072-162.394 36.746zm2.687 11.847l162.395-36.746 1.147 5.072L56.17 252.254zm2.678 11.841l150.554-34.067 1.148 5.072-150.554 34.066zm2.676 11.832L222.77 234.11l1.148 5.072-162.394 36.746zm2.676 11.853l84.582-19.14 1.148 5.073L64.2 287.779zm222.981-36.228l89.653-20.286 1.148 5.072-89.654 20.286zm2.673 11.842L451.1 221.576l1.148 5.072-162.395 36.746zm2.687 11.838l162.394-36.747 1.148 5.072-162.394 36.746zm2.678 11.84l150.554-34.067 1.148 5.072-150.554 34.066zm2.676 11.842l162.394-36.746 1.148 5.072-162.394 36.746zm2.676 11.844l84.582-19.14 1.148 5.073-84.582 19.138zm-170.881-16.47l98.11-22.2 15.312 67.67-98.11 22.2zM244.694 63.783l98.11-22.2 15.312 67.67-98.11 22.2zm96.022 70.732l98.11-22.2 15.312 67.67-98.11 22.2z"/><rect fill="url(#l)" transform="rotate(-12.75 430.661 243.998)" x="324.026" y="89.638" width="213.27" height="308.72" rx="13.44"/><rect fill="#294ace" transform="rotate(-12.75 429.689 244.602)" x="325.704" y="93.597" width="207.97" height="302.01" rx="13.44"/><path fill="#bdbdbd" d="M289.781 161.952l21.818-4.937.658 2.907-21.818 4.937zm2.31 10.179l21.818-4.937.658 2.907-21.818 4.937zm2.299 10.181l21.82-4.937.657 2.907-21.818 4.937zm2.313 10.189l21.818-4.937.658 2.907-21.818 4.937zm2.3 10.182l21.818-4.937.658 2.907-21.818 4.937zm2.309 10.179l21.818-4.937.658 2.907-21.818 4.937zm2.3 10.181l21.818-4.937.658 2.907-21.818 4.937zm2.3 10.179l21.818-4.937.658 2.907-21.818 4.937zm2.302 10.191l21.818-4.937.658 2.907-21.818 4.937zm2.3 10.182l21.818-4.937.658 2.907-21.818 4.937zm2.31 10.179l21.818-4.937.658 2.907-21.818 4.937zm2.3 10.181l21.818-4.937.658 2.907-21.818 4.937zm2.312 10.189l21.818-4.937.658 2.907-21.818 4.937zm2.3 10.182l21.818-4.937.658 2.907-21.818 4.937zm2.31 10.179l21.818-4.937.658 2.907-21.818 4.937zm2.3 10.181l21.818-4.937.658 2.907-21.818 4.937zm2.312 10.189l21.818-4.937.658 2.907-21.818 4.937zm2.3 10.182l21.818-4.937.658 2.907-21.818 4.937zm2.3 10.181l21.818-4.937.658 2.907-21.818 4.937zm2.309 10.179l21.818-4.937.658 2.907-21.818 4.937zm2.293 10.191l21.818-4.937.658 2.907-21.818 4.937zm2.309 10.179l21.818-4.937.658 2.907-21.818 4.937zm2.3 10.183l21.818-4.938.658 2.907-21.818 4.937zm2.31 10.178l21.818-4.937.658 2.907-21.818 4.937z"/><path fill="#69f0ae" d="M171.46 373.393l9.754-2.206 20.083 88.756-9.753 2.207z"/><path transform="rotate(-12.75 1588.472 -519.922)" fill="url(#m)" d="M5.246 1.639h18v46h-18z" opacity=".5"/><path fill="#69f0ae" d="M161.292 339.808l14.63-3.31 9.49 41.94-14.63 3.31z"/><path fill="#fff" opacity=".3" d="M161.292 339.808l14.63-3.31 9.49 41.94-14.63 3.31z"/><path fill="#69f0ae" d="M193.278 460.729l5.852-1.324 1.324 5.852-5.852 1.324zM158.91 349.56l.44 1.95 3.75 16.58 1.95-.44-3.75-16.58 3.9-.88-.44-1.95-3.9.88z"/><path fill="#fff" opacity=".3" d="M158.91 349.56l.44 1.95 3.75 16.58 1.95-.44-3.75-16.58 3.9-.88-.44-1.95-3.9.88z"/><g opacity=".5" fill="#47e6b1"><path d="M184.55 654.76h3v17h-3z"/><path d="M194.55 661.76v3h-17v-3z"/></g><g opacity=".5" fill="#47e6b1"><path d="M727.55 32.76h3v17h-3z"/><path d="M737.55 39.76v3h-17v-3z"/></g><g opacity=".5" fill="#47e6b1"><path d="M637.55 249.76h3v17h-3z"/><path d="M647.55 256.76v3h-17v-3z"/></g><g opacity=".5" fill="#47e6b1"><path d="M895.15 288.76h3v17h-3z"/><path d="M905.15 295.77v3h-17v-3z"/></g><path d="M359.24 653.11a3.67 3.67 0 01-2-4.44c.043-.133.07-.27.08-.41a1.84 1.84 0 00-3.31-1.22c-.08.112-.148.233-.2.36a3.67 3.67 0 01-4.44 2 1.768 1.768 0 00-.41-.08 1.84 1.84 0 00-1.22 3.31c.112.08.233.148.36.2a3.67 3.67 0 012 4.44 1.73 1.73 0 00-.08.41 1.84 1.84 0 003.33 1.23c.08-.112.148-.233.2-.36a3.67 3.67 0 014.44-2c.133.043.27.07.41.08a1.84 1.84 0 001.22-3.31 1.771 1.771 0 00-.38-.21zm183 12a3.67 3.67 0 01-2-4.44c.043-.133.07-.27.08-.41a1.84 1.84 0 00-3.31-1.22c-.08.112-.148.233-.2.36a3.67 3.67 0 01-4.44 2 1.768 1.768 0 00-.41-.08 1.84 1.84 0 00-1.22 3.31c.112.08.233.148.36.2a3.67 3.67 0 012 4.44 1.73 1.73 0 00-.08.41 1.84 1.84 0 003.33 1.23c.08-.112.148-.233.2-.36a3.67 3.67 0 014.44-2c.133.043.27.07.41.08a1.84 1.84 0 001.22-3.31 1.771 1.771 0 00-.38-.21zm219-431a3.67 3.67 0 01-2-4.44c.043-.133.07-.27.08-.41a1.84 1.84 0 00-3.31-1.22c-.08.112-.148.233-.2.36a3.67 3.67 0 01-4.44 2 1.768 1.768 0 00-.41-.08 1.84 1.84 0 00-1.22 3.31c.112.08.233.148.36.2a3.67 3.67 0 012 4.44 1.73 1.73 0 00-.08.41 1.84 1.84 0 003.33 1.23c.08-.112.148-.233.2-.36a3.67 3.67 0 014.44-2c.133.043.27.07.41.08a1.84 1.84 0 001.22-3.31 1.771 1.771 0 00-.38-.21zm152 161a3.67 3.67 0 01-2-4.44c.043-.133.07-.27.08-.41a1.84 1.84 0 00-3.31-1.22c-.08.112-.148.233-.2.36a3.67 3.67 0 01-4.44 2 1.768 1.768 0 00-.41-.08 1.84 1.84 0 00-1.22 3.31c.112.08.233.148.36.2a3.67 3.67 0 012 4.44 1.73 1.73 0 00-.08.41 1.84 1.84 0 003.33 1.23c.08-.112.148-.233.2-.36a3.67 3.67 0 014.44-2c.133.043.27.07.41.08a1.84 1.84 0 001.22-3.31 1.771 1.771 0 00-.38-.21z" fill="#4d8af0" opacity=".5"/><circle fill="#f55f44" opacity=".5" cx="106.55" cy="599.76" r="6"/><circle fill="#4d8af0" opacity=".5" cx="524.55" cy="50.76" r="6"/><circle fill="#47e6b1" opacity=".5" cx="499.55" cy="489.76" r="6"/><circle fill="#f55f44" opacity=".5" cx="845.55" cy="639.76" r="6"/><path d="M-20.814 84.083h286a6.28 6.28 0 016.28 6.28v152.94a6.29 6.29 0 01-6.29 6.29h-286a6.28 6.28 0 01-6.28-6.28V90.383a6.28 6.28 0 016.29-6.3z" transform="rotate(-73.39 517.036 -355.995)" fill="url(#n)" opacity=".5"/><rect fill="#fff" transform="rotate(16.809 905.943 176.3)" x="825.204" y="30.566" width="161.478" height="291.467" rx="13.64"/><path d="M983.5 51.11a13.05 13.05 0 01-15.5 7l-53.29-16a13.05 13.05 0 01-9.15-14.32l-28.21-8.37a6.12 6.12 0 00-7.61 4.11l-75.47 252.82a6.12 6.12 0 004.11 7.61l134.84 40.23a6.12 6.12 0 007.61-4.11l75.44-252.82a6.12 6.12 0 00-4.11-7.61z" fill="#e0e0e0"/><rect fill="#dbdbdb" transform="rotate(15.89 942.044 43.496)" x="924.104" y="42.376" width="35.88" height="2.24" rx="1.12"/><circle fill="#dbdbdb" transform="rotate(-74.11 966.645 50.297)" cx="966.645" cy="50.297" r="1.35"/><path fill="#fff" d="M872.586 69.416l42.42 11.685-10.091 36.635-42.42-11.684z"/><path fill="#294ace" opacity=".3" d="M857.97 122.433l42.42 11.685-10.09 36.635-42.42-11.684z"/><path fill="#fff" d="M843.371 175.472l42.42 11.684-10.09 36.636-42.42-11.685z"/><path fill="#3ad29f" opacity=".3" d="M828.767 228.488l42.42 11.684-10.091 36.636-42.42-11.684z"/><path fill="#fff" d="M923.216 92.7l55.918 15.403-1.062 3.856-55.918-15.402zm-3.188 11.569l55.918 15.402-1.062 3.856-55.918-15.402zm-11.152 40.485l55.918 15.402-1.062 3.856-55.918-15.402zm-3.188 11.576l55.918 15.403-1.062 3.856-55.918-15.402zm-11.152 40.487l55.918 15.402-1.062 3.856-55.918-15.402zm-3.188 11.567l55.918 15.402-1.062 3.856-55.918-15.402zm-11.152 40.495l55.918 15.402-1.062 3.856-55.918-15.402zm-3.188 11.568l55.918 15.402-1.062 3.856-55.918-15.402z"/><path transform="rotate(-52.76 760.191 59.72)" fill="url(#o)" d="M-15.015 68.962h203.96v62.36h-203.96z" opacity=".5"/><path fill="#e0e0e0" d="M422.713 522.463l47.201 35.88-121.775 160.2-47.201-35.88z"/><path fill="#4d8af0" d="M427.718 530.335l33.365 25.362-25.362 33.365-33.365-25.362z"/><path fill="#4d8af0" opacity=".5" d="M397.105 570.622l33.364 25.362-25.362 33.365-33.364-25.362z"/><path fill="#4d8af0" opacity=".3" d="M366.475 610.904l33.365 25.362-25.363 33.365-33.364-25.363z"/><path transform="rotate(-71.1 561.11 159.69)" fill="url(#p)" d="M-38.229 75.12h203.2v62.36h-203.2z" opacity=".5"/><path fill="#f5f5f5" d="M354.227 509l56.094 19.206-64.936 189.662-56.093-19.206z"/><path fill="#ff5252" d="M361.438 514.89l39.65 13.576-13.575 39.65-39.65-13.575z"/><path fill="#ff5252" opacity=".5" d="M345.055 562.761l39.65 13.576-13.575 39.65-39.65-13.575z"/><path fill="#ff5252" opacity=".3" d="M328.66 610.64l39.65 13.575-13.575 39.65-39.65-13.574z"/><path transform="rotate(-82.8 475.298 197.023)" fill="url(#q)" d="M-57.408 74.045h203.2v62.36h-203.2z" opacity=".5"/><path fill="#f5f5f5" d="M313.91 510.15l58.822 7.43-25.126 198.89-58.822-7.43z"/><path fill="#69f0ae" d="M322.135 514.455l41.58 5.253-5.254 41.58-41.58-5.254z"/><path fill="#69f0ae" opacity=".5" d="M315.793 564.654l41.58 5.253-5.254 41.58-41.58-5.254z"/><path fill="#69f0ae" opacity=".3" d="M309.45 614.853l41.58 5.253-5.253 41.58-41.58-5.254z"/><path fill="url(#r)" d="M.88.66h62.36v203.2H.88z" opacity=".5" transform="translate(284 515)"/><path fill="#fff" d="M286.92 517.02h59.29v200.47h-59.29z"/><path fill="#294ace" d="M295.61 520.26h41.91v41.91h-41.91z"/><path fill="#294ace" opacity=".5" d="M295.61 570.86h41.91v41.91h-41.91z"/><path fill="#294ace" opacity=".3" d="M295.61 621.47h41.91v41.91h-41.91z"/></g><text style="line-height:1.15;-inkscape-font-specification:'New Peninim MT Bold'" x="292.269" y="155.493" font-weight="700" font-size="192" font-family="New Peninim MT" letter-spacing="-5.64" word-spacing="-.04" fill="#000"><tspan x="292.269" y="155.493" style="-inkscape-font-specification:'New Peninim MT Bold'" dx="-.06">fond</tspan></text></g></svg>